<?xml version="1.0" encoding="UTF-8"?><svg version="1.1" width="240px" height="240px" viewBox="0 0 240.0 240.0" xmlns="http://www.w3.org/2000/svg" xmlns:xlink="http://www.w3.org/1999/xlink"><rect x="0px" y="0px" width="240px" height="240px" fill="#394677"></rect><defs><clipPath id="i0"><path d="M96.0952398,21.8800424 C99.148364,23.539349 101.655935,26.0469195 103.315241,29.1000438 L160.546065,134.40476 C165.293085,143.139277 162.06058,154.068221 153.326064,158.815241 C150.688036,160.248952 147.733276,161 144.730824,161 L30.2691758,161 C20.3280503,161 12.2691758,152.941125 12.2691758,143 C12.2691758,139.997548 13.0202239,137.042788 14.4539347,134.40476 L71.6847588,29.1000438 C76.4317787,20.3655272 87.3607233,17.1330225 96.0952398,21.8800424 Z"></path></clipPath><clipPath id="i1"><path d="M63.3170203,21.05443 C66.1962709,22.6721533 68.574955,25.0508374 70.1926783,27.930088 L93.9327051,70.1829797 C98.8022109,78.8498066 95.723874,89.8231725 87.0570471,94.6926783 C84.3646393,96.2054229 81.3283039,97 78.2400268,97 L30.7599732,97 C20.8188477,97 12.7599732,88.9411255 12.7599732,79 C12.7599732,75.9117229 13.5545503,72.8753875 15.0672949,70.1829797 L38.8073217,27.930088 C43.6768275,19.2632611 54.6501934,16.1849242 63.3170203,21.05443 Z"></path></clipPath></defs><g transform="translate(33.0 23.0)"><g clip-path="url(#i0)"><polygon points="12.2691758,19.6918546 162.734253,19.6918546 162.734253,161 12.2691758,161 12.2691758,19.6918546" stroke="none" fill="#3476A7"></polygon><path d="M103.315241,29.1000438 L160.546065,134.40476 C165.293085,143.139277 162.06058,154.068221 153.326064,158.815241 C150.688036,160.248952 147.733276,161 144.730824,161 L30.2691758,161 C20.3280503,161 12.2691758,152.941125 12.2691758,143 C12.2691758,139.997548 13.0202239,137.042788 14.4539347,134.40476 L71.6847588,29.1000438 C76.4317787,20.3655272 87.3607233,17.1330225 96.0952398,21.8800424 C99.148364,23.539349 101.655935,26.0469195 103.315241,29.1000438 Z" stroke="#344986" stroke-width="12" fill="none" stroke-miterlimit="5"></path></g></g><g transform="translate(174.95699839965266 196.60501096770292) rotate(180.0)"><g clip-path="url(#i1)"><polygon points="12.7599732,18.7439079 96.2432272,18.7439079 96.2432272,97 12.7599732,97 12.7599732,18.7439079" stroke="none" fill="#63A1D0"></polygon><path d="M70.1926783,27.930088 L93.9327051,70.1829797 C98.8022109,78.8498066 95.723874,89.8231725 87.0570471,94.6926783 C84.3646393,96.2054229 81.3283039,97 78.2400268,97 L30.7599732,97 C20.8188477,97 12.7599732,88.9411255 12.7599732,79 C12.7599732,75.9117229 13.5545503,72.8753875 15.0672949,70.1829797 L38.8073217,27.930088 C43.6768275,19.2632611 54.6501934,16.1849242 63.3170203,21.05443 C66.1962709,22.6721533 68.574955,25.0508374 70.1926783,27.930088 Z" stroke="#3476A7" stroke-width="12" fill="none" stroke-miterlimit="5"></path></g></g><g transform="translate(104.0 104.0)"><text transform="translate(0.830078125 40.0)" font-family="ComicSansMS, Comic Sans MS" font-size="36.0" font-weight="normal" fill="#344986" text-anchor="center">#</text></g></svg>